# xmcd CD database file
#
# Track frame offsets:
#	150
#	33936
#	72345
#	135618
#	205799
#	251955
#
# Disc length: 4317 seconds
#
# Revision: 1
# Processed by: cddbd v1.5.1PL0 Copyright (c) Steve Scherf et al.
# Submitted via: CDex 1.51
#
DISCID=5510db06
DTITLE=Joe Zawinul - Jazzfestival Hamburg 1997
DYEAR=1997
DGENRE=Jazz
TTITLE0=Joe Zawinul - My People
TTITLE1=Joe Zawinul - My People
TTITLE2=Joe Zawinul - My People
TTITLE3=Joe Zawinul - My People
TTITLE4=Joe Zawinul - My People
TTITLE5=Joe Zawinul - My People
EXTD=YEAR: 1997
EXTT0=
EXTT1=
EXTT2=
EXTT3=
EXTT4=
EXTT5=
PLAYORDER=
